{"accessors":[{"bufferView":0,"componentType":5121,"count":36,"max":[23],"min":[0],"type":"SCALAR"},{"bufferView":1,"componentType":5126,"count":24,"max":[1.0,1.0,1.0],"min":[-1.0,-1.0,-1.0],"type":"VEC3"},{"bufferView":2,"componentType":5126,"count":24,"max":[1.0,1.0,1.0],"min":[-1.0,-1.0,-1.0],"type":"VEC3"},{"bufferView":3,"componentType":5126,"count":24,"max":[0.875,1.0],"min":[0.125,0.0],"type":"VEC2"},{"bufferView":4,"componentType":5121,"count":36,"max":[23],"min":[0],"type":"SCALAR"},{"bufferView":5,"componentType":5126,"count":24,"max":[1.0,1.0,1.0],"min":[-1.0,-1.0,-1.0],"type":"VEC3"},{"bufferView":6,"componentType":5126,"count":24,"max":[1.0,1.0,1.0],"min":[-1.0,-1.0,-1.0],"type":"VEC3"},{"bufferView":7,"componentType":5126,"count":24,"max":[0.875,1.0],"min":[0.125,0.0],"type":"VEC2"},{"bufferView":8,"componentType":5121,"count":6,"max":[3],"min":[0],"type":"SCALAR"},{"bufferView":9,"componentType":5126,"count":4,"max":[1.0,0.0,1.0],"min":[-1.0,0.0,-1.0],"type":"VEC3"},{"bufferView":10,"componentType":5126,"count":4,"max":[0.0,1.0,-0.0],"min":[0.0,1.0,-0.0],"type":"VEC3"},{"bufferView":11,"componentType":5126,"count":4,"max":[1.0,1.0],"min":[0.0,0.0],"type":"VEC2"},{"bufferView":12,"componentType":5121,"count":6,"max":[3],"min":[0],"type":"SCALAR"},{"bufferView":13,"componentType":5126,"count":4,"max":[1.0,0.0,1.0],"min":[-1.0,0.0,-1.0],"type":"VEC3"},{"bufferView":14,"componentType":5126,"count":4,"max":[0.0,1.0,-0.0],"min":[0.0,1.0,-0.0],"type":"VEC3"},{"bufferView":15,"componentType":5126,"count":4,"max":[1.0,1.0],"min":[0.0,0.0],"type":"VEC2"},{"bufferView":16,"componentType":5121,"count":6,"max":[3],"min":[0],"type":"SCALAR"},{"bufferView":17,"componentType":5126,"count":4,"max":[1.0,0.0,1.0],"min":[-1.0,0.0,-1.0],"type":"VEC3"},{"bufferView":18,"componentType":5126,"count":4,"max":[0.0,1.0,-0.0],"min":[0.0,1.0,-0.0],"type":"VEC3"},{"bufferView":19,"componentType":5126,"count":4,"max":[1.0,1.0],"min":[0.0,0.0],"type":"VEC2"},{"bufferView":20,"componentType":5121,"count":6,"max":[3],"min":[0],"type":"SCALAR"},{"bufferView":21,"componentType":5126,"count":4,"max":[1.0,0.0,1.0],"min":[-1.0,0.0,-1.0],"type":"VEC3"},{"bufferView":22,"componentType":5126,"count":4,"max":[0.0,1.0,-0.0],"min":[0.0,1.0,-0.0],"type":"VEC3"},{"bufferView":23,"componentType":5126,"count":4,"max":[1.0,1.0],"min":[0.0,0.0],"type":"VEC2"},{"bufferView":24,"componentType":5121,"count":72,"max":[39],"min":[0],"type":"SCALAR"},{"bufferView":25,"componentType":5126,"count":40,"max":[1.0,0.022075943648815155,1.0],"min":[-1.0,0.0,-1.0],"type":"VEC3"},{"bufferView":26,"componentType":5126,"count":40,"max":[1.0,0.9999999403953552,1.0],"min":[-1.0,0.0,-1.0],"type":"VEC3"},{"bufferView":27,"componentType":5126,"count":40,"max":[1.0,1.0],"min":[0.0,0.0],"type":"VEC2"},{"bufferView":28,"componentType":5121,"count":84,"max":[29],"min":[0],"type":"SCALAR"},{"bufferView":29,"componentType":5126,"count":30,"max":[0.9490754008293152,1.487037181854248,1.268744945526123],"min":[-0.9490754008293152,-3.33394855260849e-05,0.39376407861709595],"type":"VEC3"},{"bufferView":30,"componentType":5126,"count":30,"max":[0.0,0.9938352704048157,0.9973143935203552],"min":[0.0,-0.9597765803337097,0.110782191157341],"type":"VEC3"},{"bufferView":31,"componentType":5126,"count":30,"max":[0.97453773021698,0.9745376706123352],"min":[0.025462327525019646,0.025462329387664795],"type":"VEC2"},{"bufferView":32,"componentType":5126,"count":30,"max":[5.960464477539063e-08,3.33394855260849e-05,2.7060508728027344e-05],"min":[-5.960464477539063e-08,-1.487037181854248,-2.217820167541504],"type":"VEC3"},{"bufferView":33,"componentType":5126,"count":30,"max":[0.0,1.9597766399383545,-0.110782191157341],"min":[0.0,0.006164729595184326,-0.9973143935203552],"type":"VEC3"},{"bufferView":34,"componentType":5121,"count":6,"max":[3],"min":[0],"type":"SCALAR"},{"bufferView":35,"componentType":5126,"count":4,"max":[1.0,0.0,1.0],"min":[-1.0,0.0,-1.0],"type":"VEC3"},{"bufferView":36,"componentType":5126,"count":4,"max":[0.0,1.0,-0.0],"min":[0.0,1.0,-0.0],"type":"VEC3"},{"bufferView":37,"componentType":5126,"count":4,"max":[1.0,1.0],"min":[0.0,0.0],"type":"VEC2"},{"bufferView":38,"componentType":5121,"count":6,"max":[3],"min":[0],"type":"SCALAR"},{"bufferView":39,"componentType":5126,"count":4,"max":[1.0,0.0,1.0],"min":[-1.0,0.0,-1.0],"type":"VEC3"},{"bufferView":40,"componentType":5126,"count":4,"max":[0.0,1.0,-0.0],"min":[0.0,1.0,-0.0],"type":"VEC3"},{"bufferView":41,"componentType":5126,"count":4,"max":[1.0,1.0],"min":[0.0,0.0],"type":"VEC2"},{"bufferView":42,"componentType":5126,"count":41,"max":[1.6666666666666667],"min":[0.0],"type":"SCALAR"},{"bufferView":43,"componentType":5126,"count":41,"max":[1.0],"min":[0.0],"type":"SCALAR"}],"animations":[{"channels":[{"sampler":0,"target":{"node":8,"path":"weights"}}],"extensions":{"S8S_v3d_animation_data":{"auto":true,"loop":"ONCE","offset":0.0,"repeatCount":1.0,"repeatInfinite":true}},"name":"Backup Chao","samplers":[{"input":42,"interpolation":"LINEAR","output":43}]}],"asset":{"generator":"Soft8Soft Verge3D for Blender add-on","version":"2.0"},"bufferViews":[{"buffer":0,"byteLength":36,"byteOffset":0,"target":34963},{"buffer":0,"byteLength":288,"byteOffset":36,"target":34962},{"buffer":0,"byteLength":288,"byteOffset":324,"target":34962},{"buffer":0,"byteLength":192,"byteOffset":612,"target":34962},{"buffer":0,"byteLength":36,"byteOffset":804,"target":34963},{"buffer":0,"byteLength":288,"byteOffset":840,"target":34962},{"buffer":0,"byteLength":288,"byteOffset":1128,"target":34962},{"buffer":0,"byteLength":192,"byteOffset":1416,"target":34962},{"buffer":0,"byteLength":6,"byteOffset":1608,"target":34963},{"buffer":0,"byteLength":48,"byteOffset":1616,"target":34962},{"buffer":0,"byteLength":48,"byteOffset":1664,"target":34962},{"buffer":0,"byteLength":32,"byteOffset":1712,"target":34962},{"buffer":0,"byteLength":6,"byteOffset":1744,"target":34963},{"buffer":0,"byteLength":48,"byteOffset":1752,"target":34962},{"buffer":0,"byteLength":48,"byteOffset":1800,"target":34962},{"buffer":0,"byteLength":32,"byteOffset":1848,"target":34962},{"buffer":0,"byteLength":6,"byteOffset":1880,"target":34963},{"buffer":0,"byteLength":48,"byteOffset":1888,"target":34962},{"buffer":0,"byteLength":48,"byteOffset":1936,"target":34962},{"buffer":0,"byteLength":32,"byteOffset":1984,"target":34962},{"buffer":0,"byteLength":6,"byteOffset":2016,"target":34963},{"buffer":0,"byteLength":48,"byteOffset":2024,"target":34962},{"buffer":0,"byteLength":48,"byteOffset":2072,"target":34962},{"buffer":0,"byteLength":32,"byteOffset":2120,"target":34962},{"buffer":0,"byteLength":72,"byteOffset":2152,"target":34963},{"buffer":0,"byteLength":480,"byteOffset":2224,"target":34962},{"buffer":0,"byteLength":480,"byteOffset":2704,"target":34962},{"buffer":0,"byteLength":320,"byteOffset":3184,"target":34962},{"buffer":0,"byteLength":84,"byteOffset":3504,"target":34963},{"buffer":0,"byteLength":360,"byteOffset":3588,"target":34962},{"buffer":0,"byteLength":360,"byteOffset":3948,"target":34962},{"buffer":0,"byteLength":240,"byteOffset":4308,"target":34962},{"buffer":0,"byteLength":360,"byteOffset":4548},{"buffer":0,"byteLength":360,"byteOffset":4908},{"buffer":0,"byteLength":6,"byteOffset":5268,"target":34963},{"buffer":0,"byteLength":48,"byteOffset":5276,"target":34962},{"buffer":0,"byteLength":48,"byteOffset":5324,"target":34962},{"buffer":0,"byteLength":32,"byteOffset":5372,"target":34962},{"buffer":0,"byteLength":6,"byteOffset":5404,"target":34963},{"buffer":0,"byteLength":48,"byteOffset":5412,"target":34962},{"buffer":0,"byteLength":48,"byteOffset":5460,"target":34962},{"buffer":0,"byteLength":32,"byteOffset":5508,"target":34962},{"buffer":0,"byteLength":164,"byteOffset":5540},{"buffer":0,"byteLength":164,"byteOffset":5704}],"buffers":[{"byteLength":5868,"uri":"RoomDesign.bin"}],"cameras":[{"extensions":{"S8S_v3d_camera_data":{"controls":"ORBIT","enablePan":true,"moveSpeed":1.0,"orbitMaxDistance":100.0,"orbitMaxPolarAngle":3.1415927410125732,"orbitMaxZoom":100.0,"orbitMinDistance":0.0,"orbitMinPolarAngle":0.0,"orbitMinZoom":0.009999999776482582,"orbitTarget":[0.0,0.0,-0.0],"rotateSpeed":1.0,"viewportFitInitialAspect":1.7777777777777777,"viewportFitType":"AUTO"}},"name":"Camera","perspective":{"aspectRatio":1.7777777777777777,"yfov":0.5033799372418416,"zfar":100.0,"znear":0.10000000149011612},"type":"perspective"}],"extensions":{"S8S_v3d_data":{"lights":[{"color":[1.0,1.0,1.0],"constantAttenuation":1.0,"decay":2,"distance":10.00000011175871,"intensity":100.0,"linearAttenuation":0.0,"name":"Lamp","profile":"blender","quadraticAttenuation":0.0999999988824129,"shadow":{"bias":-0.0018,"cameraFar":10.00000011175871,"cameraFov":0,"cameraNear":1.0007989406585693,"enabled":true,"expBias":2.5,"mapSize":512,"radius":1.0,"slopeScaledBias":2.5},"type":"point"},{"color":[1.0,1.0,1.0],"constantAttenuation":1.0,"decay":2,"distance":40.00000044703484,"intensity":1600.0,"linearAttenuation":0.0,"name":"Point","profile":"blender","quadraticAttenuation":0.024999999720603225,"shadow":{"bias":-0.0018,"cameraFar":40.00000044703484,"cameraFov":0,"cameraNear":0.05000000074505806,"enabled":true,"expBias":2.5,"mapSize":512,"radius":1.0,"slopeScaledBias":2.5},"type":"point"}]}},"extensionsUsed":["S8S_v3d_texture_data","S8S_v3d_material_data","S8S_v3d_camera_data","S8S_v3d_data","S8S_v3d_mesh_data","S8S_v3d_node_data","S8S_v3d_animation_data","S8S_v3d_scene_data"],"images":[{"uri":"Piso-Laminado_Carvalho_Vermelho_Floorest_Premiere_Quick_Step-1.jpg"},{"uri":"785699.png"},{"uri":"Piso-Laminado_Castanheiro_Escuro_Restaurado_Eligna_Wide_Quick_Step-1.jpg"},{"uri":"environment.hdr"}],"materials":[{"extensions":{"S8S_v3d_material_data":{"nodeGraph":{"edges":[{"fromNode":0,"fromOutput":0,"toInput":0,"toNode":1},{"fromNode":4,"fromOutput":0,"toInput":0,"toNode":0},{"fromNode":2,"fromOutput":0,"toInput":0,"toNode":3},{"fromNode":3,"fromOutput":0,"toInput":0,"toNode":4}],"nodes":[{"inputs":[[0.800000011920929,0.800000011920929,0.800000011920929,1.0],0.0,[1.0,0.20000000298023224,0.10000000149011612],[0.800000011920929,0.800000011920929,0.800000011920929,1.0],0.5454549789428711,0.5,0.0,0.14090900123119354,0.0,0.0,0.0,0.5,0.0,0.029999999329447746,1.4500000476837158,0.0,0.0,[0.0,0.0,0.0,1.0],1.0,[0.0,0.0,0.0],[0.0,0.0,0.0],[0.0,0.0,0.0]],"is_active_output":false,"name":"Principled BSDF","outputs":[[0,0,0,0]],"type":"BSDF_PRINCIPLED_BL"},{"inputs":[[0,0,0,0],[0,0,0,0],[0.0,0.0,0.0]],"is_active_output":true,"name":"Material Output","outputs":[],"type":"OUTPUT_MATERIAL_BL"},{"inputs":[],"is_active_output":false,"name":"Texture Coordinate","object":-1,"outputs":[[0.0,0.0,0.0],[0.0,0.0,0.0],[0.0,0.0,0.0],[0.0,0.0,0.0],[0.0,0.0,0.0],[0.0,0.0,0.0],[0.0,0.0,0.0]],"type":"TEX_COORD_BL"},{"inputs":[[0.0,0.0,0.0],[0.0,0.0,0.0],[0.0,0.0,0.0],[2.0,2.6999998092651367,1.0]],"is_active_output":false,"name":"Mapping","outputs":[[0.0,0.0,0.0]],"type":"MAPPING_BL","vectorType":"POINT"},{"inputs":[[0.0,0.0,0.0]],"is_active_output":false,"name":"Image Texture","outputs":[[0.0,0.0,0.0,0.0],0.0],"projection":"FLAT","projectionBlend":0.0,"texture":0,"type":"TEX_IMAGE_BL"},{"inputs":[[0.0,0.0,0.0]],"is_active_output":false,"name":"Image Texture.001","outputs":[[0.0,0.0,0.0,0.0],0.0],"projection":"FLAT","projectionBlend":0.0,"texture":0,"type":"TEX_IMAGE_BL"}]},"useCastShadows":true}},"name":"M_1"},{"extensions":{"S8S_v3d_material_data":{"nodeGraph":{"edges":[{"fromNode":0,"fromOutput":0,"toInput":0,"toNode":1},{"fromNode":4,"fromOutput":0,"toInput":0,"toNode":0},{"fromNode":2,"fromOutput":0,"toInput":0,"toNode":3},{"fromNode":3,"fromOutput":0,"toInput":0,"toNode":4}],"nodes":[{"inputs":[[0.800000011920929,0.800000011920929,0.800000011920929,1.0],0.0,[1.0,0.20000000298023224,0.10000000149011612],[0.800000011920929,0.800000011920929,0.800000011920929,1.0],0.5454549789428711,0.5,0.0,0.14090900123119354,0.0,0.0,0.0,0.5,0.0,0.029999999329447746,1.4500000476837158,0.0,0.0,[0.0,0.0,0.0,1.0],1.0,[0.0,0.0,0.0],[0.0,0.0,0.0],[0.0,0.0,0.0]],"is_active_output":false,"name":"Principled BSDF","outputs":[[0,0,0,0]],"type":"BSDF_PRINCIPLED_BL"},{"inputs":[[0,0,0,0],[0,0,0,0],[0.0,0.0,0.0]],"is_active_output":true,"name":"Material Output","outputs":[],"type":"OUTPUT_MATERIAL_BL"},{"inputs":[],"is_active_output":false,"name":"Texture Coordinate","object":-1,"outputs":[[0.0,0.0,0.0],[0.0,0.0,0.0],[0.0,0.0,0.0],[0.0,0.0,0.0],[0.0,0.0,0.0],[0.0,0.0,0.0],[0.0,0.0,0.0]],"type":"TEX_COORD_BL"},{"inputs":[[0.0,0.0,0.0],[0.0,0.0,0.0],[0.0,0.0,0.0],[2.0,2.6999998092651367,1.0]],"is_active_output":false,"name":"Mapping","outputs":[[0.0,0.0,0.0]],"type":"MAPPING_BL","vectorType":"POINT"},{"inputs":[[0.0,0.0,0.0]],"is_active_output":false,"name":"Image Texture","outputs":[[0.0,0.0,0.0,0.0],0.0],"projection":"FLAT","projectionBlend":0.0,"texture":2,"type":"TEX_IMAGE_BL"}]},"useCastShadows":true}},"name":"M_2"},{"extensions":{"S8S_v3d_material_data":{"useCastShadows":true}},"name":"M_3","pbrMetallicRoughness":{"baseColorFactor":[0.800000011920929,0.800000011920929,0.800000011920929,1.0],"baseColorTexture":{"index":3},"metallicFactor":0.5454549789428711,"roughnessFactor":0.14090900123119354}},{"extensions":{"S8S_v3d_material_data":{"nodeGraph":{"edges":[{"fromNode":0,"fromOutput":0,"toInput":0,"toNode":1}],"nodes":[{"inputs":[[0.17954504489898682,0.09585928171873093,0.09020344913005829,1.0],0.0,[1.0,0.20000000298023224,0.10000000149011612],[0.800000011920929,0.800000011920929,0.800000011920929,1.0],0.0,0.5,0.0,0.5,0.0,0.0,0.0,0.5,0.0,0.029999999329447746,1.4500000476837158,0.0,0.0,[0.0,0.0,0.0,1.0],1.0,[0.0,0.0,0.0],[0.0,0.0,0.0],[0.0,0.0,0.0]],"is_active_output":false,"name":"Principled BSDF","outputs":[[0,0,0,0]],"type":"BSDF_PRINCIPLED_BL"},{"inputs":[[0,0,0,0],[0,0,0,0],[0.0,0.0,0.0]],"is_active_output":true,"name":"Material Output","outputs":[],"type":"OUTPUT_MATERIAL_BL"}]},"useCastShadows":true}},"name":"M_borda"},{"extensions":{"S8S_v3d_material_data":{"nodeGraph":{"edges":[{"fromNode":0,"fromOutput":0,"toInput":0,"toNode":1}],"nodes":[{"inputs":[[0.8000000715255737,0.057203929871320724,0.13318584859371185,1.0],0.0,[1.0,0.20000000298023224,0.10000000149011612],[0.800000011920929,0.800000011920929,0.800000011920929,1.0],0.0,0.5,0.0,0.5,0.0,0.0,0.0,0.5,0.0,0.029999999329447746,1.4500000476837158,0.0,0.0,[0.0,0.0,0.0,1.0],1.0,[0.0,0.0,0.0],[0.0,0.0,0.0],[0.0,0.0,0.0]],"is_active_output":false,"name":"Principled BSDF","outputs":[[0,0,0,0]],"type":"BSDF_PRINCIPLED_BL"},{"inputs":[[0,0,0,0],[0,0,0,0],[0.0,0.0,0.0]],"is_active_output":true,"name":"Material Output","outputs":[],"type":"OUTPUT_MATERIAL_BL"}]},"useCastShadows":true}},"name":"Material"},{"extensions":{"S8S_v3d_material_data":{"nodeGraph":{"edges":[{"fromNode":0,"fromOutput":0,"toInput":0,"toNode":1}],"nodes":[{"inputs":[[0.2820873558521271,0.1332414299249649,0.8000000715255737,1.0],0.0,[1.0,0.20000000298023224,0.10000000149011612],[0.800000011920929,0.800000011920929,0.800000011920929,1.0],0.0,0.5,0.0,0.5,0.0,0.0,0.0,0.5,0.0,0.029999999329447746,1.4500000476837158,0.0,0.0,[0.0,0.0,0.0,1.0],1.0,[0.0,0.0,0.0],[0.0,0.0,0.0],[0.0,0.0,0.0]],"is_active_output":false,"name":"Principled BSDF","outputs":[[0,0,0,0]],"type":"BSDF_PRINCIPLED_BL"},{"inputs":[[0,0,0,0],[0,0,0,0],[0.0,0.0,0.0]],"is_active_output":true,"name":"Material Output","outputs":[],"type":"OUTPUT_MATERIAL_BL"}]},"useCastShadows":true}},"name":"Material.001"},{"extensions":{"S8S_v3d_material_data":{"nodeGraph":{"edges":[{"fromNode":0,"fromOutput":0,"toInput":0,"toNode":1},{"fromNode":4,"fromOutput":0,"toInput":1,"toNode":2},{"fromNode":2,"fromOutput":0,"toInput":0,"toNode":0},{"fromNode":3,"fromOutput":0,"toInput":0,"toNode":2},{"fromNode":5,"fromOutput":0,"toInput":2,"toNode":2}],"nodes":[{"inputs":[[0.05087608844041824,0.05087608844041824,0.05087608844041824,1.0],1.0],"is_active_output":false,"name":"Background","outputs":[[0,0,0,0]],"type":"BACKGROUND_BL"},{"inputs":[[0,0,0,0],[0,0,0,0]],"is_active_output":true,"name":"World Output","outputs":[],"type":"OUTPUT_WORLD_BL"},{"blendType":"MIX","inputs":[0.5,[0.5,0.5,0.5,1.0],[0.05126946419477463,0.05126946419477463,0.05126946419477463,1.0]],"is_active_output":false,"name":"Mix","outputs":[[0.0,0.0,0.0,0.0]],"type":"MIX_RGB_BL","useClamp":false},{"inputs":[],"is_active_output":false,"name":"Light Path","outputs":[0.0,0.0,0.0,0.0,0.0,0.0,0.0,0.0,0.0,0.0,0.0,0.0,0.0],"type":"LIGHT_PATH_BL"},{"inputs":[[0.0,0.0,0.0]],"is_active_output":false,"name":"Environment Texture","outputs":[[0.0,0.0,0.0,0.0]],"projection":"EQUIRECTANGULAR","texture":4,"type":"TEX_ENVIRONMENT_BL"},{"inputs":[],"is_active_output":false,"name":"RGB","outputs":[[0.4479883313179016,0.4479883313179016,0.4479883313179016,1.0]],"type":"RGB_BL"}]},"useCastShadows":true}},"name":"Verge3D_Environment_World"}],"meshes":[{"extensions":{"S8S_v3d_mesh_data":{"colorLayers":{},"uvLayers":{"UVMap":"TEXCOORD_0"}}},"name":"Cube","primitives":[{"attributes":{"NORMAL":2,"POSITION":1,"TEXCOORD_0":3},"indices":0,"material":4,"mode":4}]},{"extensions":{"S8S_v3d_mesh_data":{"colorLayers":{},"uvLayers":{"UVMap":"TEXCOORD_0"}}},"name":"Cube.001","primitives":[{"attributes":{"NORMAL":6,"POSITION":5,"TEXCOORD_0":7},"indices":4,"material":5,"mode":4}]},{"extensions":{"S8S_v3d_mesh_data":{"colorLayers":{},"uvLayers":{"UVMap":"TEXCOORD_0"}}},"name":"Plane","primitives":[{"attributes":{"NORMAL":10,"POSITION":9,"TEXCOORD_0":11},"indices":8,"material":0,"mode":4}]},{"extensions":{"S8S_v3d_mesh_data":{"colorLayers":{},"uvLayers":{}}},"name":"Plane.001","primitives":[{"attributes":{"NORMAL":14,"POSITION":13,"TEXCOORD_0":15},"indices":12,"material":2,"mode":4}]},{"extensions":{"S8S_v3d_mesh_data":{"colorLayers":{},"uvLayers":{"UVMap":"TEXCOORD_0"}}},"name":"Plane.002","primitives":[{"attributes":{"NORMAL":18,"POSITION":17,"TEXCOORD_0":19},"indices":16,"material":1,"mode":4}]},{"extensions":{"S8S_v3d_mesh_data":{"colorLayers":{},"uvLayers":{"UVMap":"TEXCOORD_0"}}},"name":"Plane.003","primitives":[{"attributes":{"NORMAL":22,"POSITION":21,"TEXCOORD_0":23},"indices":20,"material":0,"mode":4}]},{"extensions":{"S8S_v3d_mesh_data":{"colorLayers":{},"uvLayers":{"UVMap":"TEXCOORD_0"}}},"name":"Plane.004","primitives":[{"attributes":{"NORMAL":26,"POSITION":25,"TEXCOORD_0":27},"indices":24,"material":3,"mode":4}]},{"extensions":{"S8S_v3d_mesh_data":{"colorLayers":{},"uvLayers":{}}},"extras":{"targetNames":["Chao.002"]},"name":"Plane.006","primitives":[{"attributes":{"NORMAL":30,"POSITION":29,"TEXCOORD_0":31},"indices":28,"material":2,"mode":4,"targets":[{"NORMAL":33,"POSITION":32}]}],"weights":[0.0]},{"extensions":{"S8S_v3d_mesh_data":{"colorLayers":{},"uvLayers":{"UVMap":"TEXCOORD_0"}}},"name":"Plane.009","primitives":[{"attributes":{"NORMAL":36,"POSITION":35,"TEXCOORD_0":37},"indices":34,"material":1,"mode":4}]},{"extensions":{"S8S_v3d_mesh_data":{"colorLayers":{},"uvLayers":{}}},"name":"Plane.010","primitives":[{"attributes":{"NORMAL":40,"POSITION":39,"TEXCOORD_0":41},"indices":38,"material":2,"mode":4}]}],"nodes":[{"extensions":{"S8S_v3d_node_data":{"frustumCulling":true,"groupNames":["Cena"],"hidden":false,"light":0,"renderOrder":0}},"name":"Lamp","rotation":[-0.2841663062572479,0.7269423604011536,0.34203389286994934,0.5232754945755005],"scale":[0.9999999403953552,0.9999997615814209,0.9999998807907104],"translation":[4.076245307922363,5.903861999511719,-1.0054539442062378]},{"extensions":{"S8S_v3d_node_data":{"frustumCulling":true,"groupNames":["Cena"],"hidden":false,"renderOrder":0,"useShadows":true}},"mesh":6,"name":"Borda","scale":[2.799999952316284,2.799999952316284,2.799999952316284]},{"extensions":{"S8S_v3d_node_data":{"frustumCulling":true,"groupNames":["Cena"],"hidden":false,"light":1,"renderOrder":0}},"name":"Point","rotation":[-0.7071068286895752,0.0,0.0,0.7071068286895752],"scale":[1.0,0.9999999403953552,0.9999999403953552],"translation":[0.0,5.656290054321289,0.0]},{"camera":0,"extensions":{"S8S_v3d_node_data":{"frustumCulling":true,"groupNames":["Cena"],"hidden":false,"renderOrder":0}},"name":"Camera","rotation":[-0.2099730223417282,0.3857799768447876,0.09062845259904861,0.8937963247299194],"scale":[1.0,0.9999998807907104,0.9999998807907104],"translation":[7.226052284240723,5.1113457679748535,6.946681022644043]},{"extensions":{"S8S_v3d_node_data":{"frustumCulling":true,"groupNames":["Botoes"],"hidden":false,"renderOrder":0,"useShadows":true}},"mesh":5,"name":"B_mat1","scale":[0.5200064778327942,0.5200064778327942,0.5200064778327942],"translation":[0.0,1.0938225984573364,3.8253636360168457]},{"extensions":{"S8S_v3d_node_data":{"frustumCulling":true,"groupNames":["Botoes"],"hidden":false,"renderOrder":0,"useShadows":true}},"mesh":4,"name":"B_mat2","scale":[0.5200064778327942,0.5200064778327942,0.5200064778327942],"translation":[0.0,0.48205697536468506,3.8253636360168457]},{"extensions":{"S8S_v3d_node_data":{"frustumCulling":true,"groupNames":["Botoes"],"hidden":false,"renderOrder":0,"useShadows":true}},"mesh":3,"name":"B_mat3","scale":[0.5200064778327942,0.5200064778327942,0.5200064778327942],"translation":[0.0,-0.13035690784454346,3.8253636360168457]},{"extensions":{"S8S_v3d_node_data":{"frustumCulling":true,"groupNames":["Objetos"],"hidden":false,"renderOrder":0}},"name":"Empty","rotation":[0.13544124364852905,0.0,-0.0,0.9907853603363037],"scale":[1.0,0.9999999403953552,0.9999999403953552],"translation":[0.0,0.0,2.6647861003875732]},{"extensions":{"S8S_v3d_node_data":{"frustumCulling":true,"groupNames":["Objetos"],"hidden":false,"renderOrder":0,"useShadows":true}},"mesh":7,"name":"Backup Chao","scale":[2.799999952316284,2.799999952316284,2.799999952316284],"translation":[0.0,0.011417395435273647,-0.0]},{"extensions":{"S8S_v3d_node_data":{"frustumCulling":true,"groupNames":["Objetos"],"hidden":false,"renderOrder":0,"useShadows":true}},"mesh":2,"name":"Chao.001","scale":[2.799999952316284,2.799999952316284,2.799999952316284]},{"extensions":{"S8S_v3d_node_data":{"frustumCulling":true,"groupNames":["Moveis"],"hidden":false,"renderOrder":0,"useShadows":true}},"mesh":0,"name":"Fogao","scale":[0.4870620369911194,0.4870620369911194,0.4870620369911194],"translation":[3.904425621032715,0.5647004842758179,0.7341337203979492]},{"extensions":{"S8S_v3d_node_data":{"frustumCulling":true,"groupNames":["Moveis"],"hidden":false,"renderOrder":0,"useShadows":true}},"mesh":1,"name":"Mesa","scale":[0.4870620369911194,0.4870620369911194,0.4870620369911194],"translation":[3.904425621032715,0.5647004842758179,-0.7783328294754028]},{"extensions":{"S8S_v3d_node_data":{"frustumCulling":true,"groupNames":["Objetos"],"hidden":false,"renderOrder":0,"useShadows":true}},"mesh":8,"name":"Chao.002","scale":[2.799999952316284,2.799999952316284,2.799999952316284]},{"extensions":{"S8S_v3d_node_data":{"frustumCulling":true,"groupNames":["Objetos"],"hidden":false,"renderOrder":0,"useShadows":true}},"mesh":9,"name":"Chao.003","scale":[2.799999952316284,2.799999952316284,2.799999952316284]}],"samplers":[{}],"scene":0,"scenes":[{"extensions":{"S8S_v3d_scene_data":{"aaMethod":"AUTO","iblEnvironmentMode":"PMREM","physicallyCorrectLights":true,"pmremMaxTileSize":256,"shadowMap":{"esmDistanceScale":1.0,"renderReverseSided":false,"renderSingleSided":true,"type":"PCFPOISSON"},"worldMaterial":6}},"extras":{"animFrameRate":24,"coordSystem":"Z_UP_RIGHT"},"name":"Scene","nodes":[0,3,1,2,4,5,6,7,8,9,12,13,10,11]}],"textures":[{"extensions":{"S8S_v3d_texture_data":{"colorSpace":"srgb"}},"name":"Piso-Laminado_Carvalho_Vermelho_Floorest_Premiere_Quick_Step-1.","sampler":0,"source":0},{"extensions":{"S8S_v3d_texture_data":{"colorSpace":"srgb"}},"name":"Piso-Laminado_Carvalho_Vermelho_Floorest_Premiere_Quick_Step-1.","sampler":0,"source":0},{"extensions":{"S8S_v3d_texture_data":{"colorSpace":"srgb"}},"name":"785699.png","sampler":0,"source":1},{"extensions":{"S8S_v3d_texture_data":{"colorSpace":"srgb"}},"name":"Piso-Laminado_Castanheiro_Escuro_Restaurado_Eligna_Wide_Quick_S","sampler":0,"source":2},{"extensions":{"S8S_v3d_texture_data":{"colorSpace":"linear"}},"name":"environment.hdr","sampler":0,"source":3}]}
